<mxfile host="app.diagrams.net" agent="Mozilla/5.0 (Macintosh; Intel Mac OS X 10_15_7) AppleWebKit/605.1.15 (KHTML, like Gecko) Version/18.4 Safari/605.1.15" version="28.1.1">
  <diagram name="Page-1" id="-0pGDbJdawxYtD4IURdg">
    <mxGraphModel dx="1892" dy="1360" grid="1" gridSize="10" guides="1" tooltips="1" connect="1" arrows="1" fold="1" page="1" pageScale="1" pageWidth="827" pageHeight="1169" math="0" shadow="0">
      <root>
        <mxCell id="0" />
        <mxCell id="1" parent="0" />
        <mxCell id="IUXB7alXnJh20BZdjzGv-3" value="" style="edgeStyle=orthogonalEdgeStyle;rounded=0;orthogonalLoop=1;jettySize=auto;html=1;" edge="1" parent="1" source="IUXB7alXnJh20BZdjzGv-1" target="IUXB7alXnJh20BZdjzGv-2">
          <mxGeometry relative="1" as="geometry" />
        </mxCell>
        <mxCell id="IUXB7alXnJh20BZdjzGv-1" value="Start" style="rounded=1;whiteSpace=wrap;html=1;fontSize=15;" vertex="1" parent="1">
          <mxGeometry x="350" y="30" width="120" height="60" as="geometry" />
        </mxCell>
        <mxCell id="IUXB7alXnJh20BZdjzGv-5" value="" style="edgeStyle=orthogonalEdgeStyle;rounded=0;orthogonalLoop=1;jettySize=auto;html=1;" edge="1" parent="1" source="IUXB7alXnJh20BZdjzGv-2" target="IUXB7alXnJh20BZdjzGv-4">
          <mxGeometry relative="1" as="geometry" />
        </mxCell>
        <mxCell id="IUXB7alXnJh20BZdjzGv-2" value="&lt;div&gt;Time Series Forecasting Project&lt;/div&gt;" style="whiteSpace=wrap;html=1;rounded=1;fontSize=15;" vertex="1" parent="1">
          <mxGeometry x="315" y="160" width="190" height="60" as="geometry" />
        </mxCell>
        <mxCell id="IUXB7alXnJh20BZdjzGv-8" value="" style="edgeStyle=orthogonalEdgeStyle;rounded=0;orthogonalLoop=1;jettySize=auto;html=1;" edge="1" parent="1" source="IUXB7alXnJh20BZdjzGv-4" target="IUXB7alXnJh20BZdjzGv-7">
          <mxGeometry relative="1" as="geometry" />
        </mxCell>
        <mxCell id="IUXB7alXnJh20BZdjzGv-4" value="&lt;div&gt;Environment Setup&lt;br&gt;&lt;/div&gt;" style="whiteSpace=wrap;html=1;rounded=1;fontSize=15;" vertex="1" parent="1">
          <mxGeometry x="312.5" y="290" width="195" height="60" as="geometry" />
        </mxCell>
        <mxCell id="IUXB7alXnJh20BZdjzGv-10" value="" style="edgeStyle=orthogonalEdgeStyle;rounded=0;orthogonalLoop=1;jettySize=auto;html=1;" edge="1" parent="1" source="IUXB7alXnJh20BZdjzGv-7" target="IUXB7alXnJh20BZdjzGv-9">
          <mxGeometry relative="1" as="geometry" />
        </mxCell>
        <mxCell id="IUXB7alXnJh20BZdjzGv-7" value="&lt;div&gt;Problem Definition&lt;br&gt;&lt;/div&gt;" style="whiteSpace=wrap;html=1;rounded=1;fontSize=15;" vertex="1" parent="1">
          <mxGeometry x="311.25" y="420" width="197.5" height="60" as="geometry" />
        </mxCell>
        <mxCell id="IUXB7alXnJh20BZdjzGv-12" value="" style="edgeStyle=orthogonalEdgeStyle;rounded=0;orthogonalLoop=1;jettySize=auto;html=1;" edge="1" parent="1" source="IUXB7alXnJh20BZdjzGv-9" target="IUXB7alXnJh20BZdjzGv-11">
          <mxGeometry relative="1" as="geometry" />
        </mxCell>
        <mxCell id="IUXB7alXnJh20BZdjzGv-9" value="&lt;div&gt;Data Collection&amp;nbsp;&lt;br&gt;&lt;/div&gt;" style="whiteSpace=wrap;html=1;rounded=1;fontSize=15;" vertex="1" parent="1">
          <mxGeometry x="311.25" y="560" width="197.5" height="60" as="geometry" />
        </mxCell>
        <mxCell id="IUXB7alXnJh20BZdjzGv-14" value="" style="edgeStyle=orthogonalEdgeStyle;rounded=0;orthogonalLoop=1;jettySize=auto;html=1;" edge="1" parent="1" source="IUXB7alXnJh20BZdjzGv-11" target="IUXB7alXnJh20BZdjzGv-13">
          <mxGeometry relative="1" as="geometry" />
        </mxCell>
        <mxCell id="IUXB7alXnJh20BZdjzGv-11" value="&lt;div&gt;Data Preprocessing&amp;nbsp;&lt;br&gt;&lt;/div&gt;" style="whiteSpace=wrap;html=1;rounded=1;fontSize=15;" vertex="1" parent="1">
          <mxGeometry x="311.25" y="700" width="197.5" height="60" as="geometry" />
        </mxCell>
        <mxCell id="IUXB7alXnJh20BZdjzGv-21" value="" style="edgeStyle=orthogonalEdgeStyle;rounded=0;orthogonalLoop=1;jettySize=auto;html=1;" edge="1" parent="1" source="IUXB7alXnJh20BZdjzGv-13" target="IUXB7alXnJh20BZdjzGv-20">
          <mxGeometry relative="1" as="geometry" />
        </mxCell>
        <mxCell id="IUXB7alXnJh20BZdjzGv-13" value="&lt;div&gt;Exploratory Analysis&lt;br&gt;&lt;/div&gt;" style="whiteSpace=wrap;html=1;rounded=1;fontSize=15;" vertex="1" parent="1">
          <mxGeometry x="311.25" y="840" width="197.5" height="60" as="geometry" />
        </mxCell>
        <mxCell id="IUXB7alXnJh20BZdjzGv-18" value="" style="edgeStyle=orthogonalEdgeStyle;rounded=0;orthogonalLoop=1;jettySize=auto;html=1;" edge="1" parent="1" target="IUXB7alXnJh20BZdjzGv-17">
          <mxGeometry relative="1" as="geometry">
            <mxPoint x="410" y="1040" as="sourcePoint" />
          </mxGeometry>
        </mxCell>
        <mxCell id="IUXB7alXnJh20BZdjzGv-29" value="" style="edgeStyle=orthogonalEdgeStyle;rounded=0;orthogonalLoop=1;jettySize=auto;html=1;" edge="1" parent="1" source="IUXB7alXnJh20BZdjzGv-17" target="IUXB7alXnJh20BZdjzGv-27">
          <mxGeometry relative="1" as="geometry" />
        </mxCell>
        <mxCell id="IUXB7alXnJh20BZdjzGv-17" value="&lt;div&gt;SARIMA&lt;br&gt;&lt;/div&gt;" style="whiteSpace=wrap;html=1;rounded=1;fontSize=15;" vertex="1" parent="1">
          <mxGeometry x="430" y="1109" width="197.5" height="60" as="geometry" />
        </mxCell>
        <mxCell id="IUXB7alXnJh20BZdjzGv-23" value="" style="edgeStyle=orthogonalEdgeStyle;rounded=0;orthogonalLoop=1;jettySize=auto;html=1;" edge="1" parent="1" source="IUXB7alXnJh20BZdjzGv-20" target="IUXB7alXnJh20BZdjzGv-22">
          <mxGeometry relative="1" as="geometry" />
        </mxCell>
        <mxCell id="IUXB7alXnJh20BZdjzGv-26" value="" style="edgeStyle=orthogonalEdgeStyle;rounded=0;orthogonalLoop=1;jettySize=auto;html=1;" edge="1" parent="1" source="IUXB7alXnJh20BZdjzGv-20" target="IUXB7alXnJh20BZdjzGv-25">
          <mxGeometry relative="1" as="geometry">
            <Array as="points">
              <mxPoint x="309" y="1040" />
            </Array>
          </mxGeometry>
        </mxCell>
        <mxCell id="IUXB7alXnJh20BZdjzGv-20" value="Model&amp;nbsp;" style="rhombus;whiteSpace=wrap;html=1;fontSize=15;rounded=1;" vertex="1" parent="1">
          <mxGeometry x="325" y="970" width="170" height="80" as="geometry" />
        </mxCell>
        <mxCell id="IUXB7alXnJh20BZdjzGv-22" value="ARIMA" style="whiteSpace=wrap;html=1;fontSize=15;rounded=1;" vertex="1" parent="1">
          <mxGeometry x="600" y="980" width="120" height="60" as="geometry" />
        </mxCell>
        <mxCell id="IUXB7alXnJh20BZdjzGv-28" value="" style="edgeStyle=orthogonalEdgeStyle;rounded=0;orthogonalLoop=1;jettySize=auto;html=1;" edge="1" parent="1" source="IUXB7alXnJh20BZdjzGv-25" target="IUXB7alXnJh20BZdjzGv-27">
          <mxGeometry relative="1" as="geometry" />
        </mxCell>
        <mxCell id="IUXB7alXnJh20BZdjzGv-25" value="LSTM" style="whiteSpace=wrap;html=1;fontSize=15;rounded=1;" vertex="1" parent="1">
          <mxGeometry x="210" y="1108" width="197.5" height="61" as="geometry" />
        </mxCell>
        <mxCell id="IUXB7alXnJh20BZdjzGv-31" value="" style="edgeStyle=orthogonalEdgeStyle;rounded=0;orthogonalLoop=1;jettySize=auto;html=1;" edge="1" parent="1" source="IUXB7alXnJh20BZdjzGv-27" target="IUXB7alXnJh20BZdjzGv-30">
          <mxGeometry relative="1" as="geometry" />
        </mxCell>
        <mxCell id="IUXB7alXnJh20BZdjzGv-27" value="Model Evaluation&amp;nbsp;" style="whiteSpace=wrap;html=1;fontSize=15;rounded=1;" vertex="1" parent="1">
          <mxGeometry x="315" y="1260" width="197.5" height="61" as="geometry" />
        </mxCell>
        <mxCell id="IUXB7alXnJh20BZdjzGv-33" value="" style="edgeStyle=orthogonalEdgeStyle;rounded=0;orthogonalLoop=1;jettySize=auto;html=1;" edge="1" parent="1" source="IUXB7alXnJh20BZdjzGv-30" target="IUXB7alXnJh20BZdjzGv-32">
          <mxGeometry relative="1" as="geometry" />
        </mxCell>
        <mxCell id="IUXB7alXnJh20BZdjzGv-30" value="Performance Comparision" style="whiteSpace=wrap;html=1;fontSize=15;rounded=1;" vertex="1" parent="1">
          <mxGeometry x="315" y="1401" width="197.5" height="61" as="geometry" />
        </mxCell>
        <mxCell id="IUXB7alXnJh20BZdjzGv-35" value="" style="edgeStyle=orthogonalEdgeStyle;rounded=0;orthogonalLoop=1;jettySize=auto;html=1;" edge="1" parent="1" source="IUXB7alXnJh20BZdjzGv-32" target="IUXB7alXnJh20BZdjzGv-34">
          <mxGeometry relative="1" as="geometry" />
        </mxCell>
        <mxCell id="IUXB7alXnJh20BZdjzGv-32" value="Prediction &amp;amp; Deployment" style="whiteSpace=wrap;html=1;fontSize=15;rounded=1;" vertex="1" parent="1">
          <mxGeometry x="315" y="1542" width="197.5" height="61" as="geometry" />
        </mxCell>
        <mxCell id="IUXB7alXnJh20BZdjzGv-34" value="End" style="whiteSpace=wrap;html=1;fontSize=15;rounded=1;" vertex="1" parent="1">
          <mxGeometry x="315" y="1683" width="197.5" height="61" as="geometry" />
        </mxCell>
      </root>
    </mxGraphModel>
  </diagram>
</mxfile>
